<svg xmlns="http://www.w3.org/2000/svg" xmlns:xlink="http://www.w3.org/1999/xlink" width="122.076" height="90" viewBox="0 0 122.076 90"><defs><style>.a{fill:none;}.b{clip-path:url(#a);}.c{fill:#b12c1b;}.d,.f{fill-rule:evenodd;}.e,.f{fill:#fff;}.g{fill:#b73237;}.h{fill:#231f20;}</style><clipPath id="a"><rect class="a" width="122.076" height="90"></rect></clipPath></defs><g class="b"><path class="c" d="M53.471,318.246c-.03,0-.046,0-.046-.01l.008-.008c0-.025-.017-.029-.051-.029a4.321,4.321,0,0,0-.527.265v-.01a.622.622,0,0,1,.012.2.284.284,0,0,1-.044.163.256.256,0,0,0-.047.159.67.67,0,0,0,.037.173.681.681,0,0,1,.037.184c0,.091-.056.164-.171.229a1.714,1.714,0,0,1,.088.459c0,.046-.06.127-.176.236a.261.261,0,0,1,.147.246.778.778,0,0,1-.024.154,1.065,1.065,0,0,0-.027.162,2.4,2.4,0,0,0,.193.2.157.157,0,0,0-.013.069,1.2,1.2,0,0,0,.034.229,1.257,1.257,0,0,1,.038.221.65.65,0,0,1-.048.229,1.233,1.233,0,0,1-.115.244.885.885,0,0,1-.151.188.256.256,0,0,1-.164.075.449.449,0,0,1-.249-.094.267.267,0,0,1-.127-.223.272.272,0,0,1,.108-.242c0-.069,0-.173-.01-.3s-.013-.229-.013-.3a.525.525,0,0,1,.023-.159,1.566,1.566,0,0,1,.108-.259.576.576,0,0,1-.06-.286,1.537,1.537,0,0,1,.023-.209c.02-.086.038-.184.063-.282s.034-.194.05-.288a1.243,1.243,0,0,0,.024-.208.388.388,0,0,0-.058-.234.3.3,0,0,0,.12-.194.543.543,0,0,0-.109-.382.706.706,0,0,0-.47-.1c-.007,0-.041.016-.1.035l-.237.09c-.1.033-.2.075-.311.117s-.225.083-.333.117-.2.062-.278.088a.664.664,0,0,1-.17.039.247.247,0,0,1-.155-.081,4.945,4.945,0,0,0-.458.509c-.145.184-.273.361-.383.528s-.194.317-.263.444a.809.809,0,0,0-.1.263.152.152,0,0,0,.1.15,2.009,2.009,0,0,1-.69,1.01c-.038-.021-.078-.046-.134-.075s-.118-.067-.188-.108c.046-.15.085-.292.119-.434a3.507,3.507,0,0,1,.126-.4,2.694,2.694,0,0,1,.212-.4,2.288,2.288,0,0,1,.362-.422v-.284c-.179-.075-.26-.171-.26-.279a.216.216,0,0,1,.109-.19c.081-.044.176-.1.288-.156a2.539,2.539,0,0,0,.367-.261,1.625,1.625,0,0,0,.373-.507,1.551,1.551,0,0,1,.22-.326,1.905,1.905,0,0,1,.208-.206V317.7a.9.9,0,0,1,.089-.361,3.838,3.838,0,0,1,.228-.409c.094-.138.195-.3.3-.463a5.442,5.442,0,0,0,.3-.551c.041-.083.068-.142.091-.183s.039-.061.059-.061c.046,0,.07.01.07.031l.008.017a.162.162,0,0,0,.041-.113c0-.044-.03-.079-.094-.1h.182a.232.232,0,0,0,.032-.134.515.515,0,0,0-.032-.163c.189-.327.384-.686.6-1.068s.46-.857.736-1.41a.946.946,0,0,0,.032-.173.714.714,0,0,1,.047-.161.239.239,0,0,1,.09-.123.236.236,0,0,1,.159-.044.212.212,0,0,1,.094.019l.132.046c.042.019.082.034.116.048s.056.021.056.029a.7.7,0,0,0,.006.217.439.439,0,0,0,.047.146.119.119,0,0,0,.1.069v.6a.52.52,0,0,1-.054.2,2.889,2.889,0,0,1-.125.273c-.044.094-.089.177-.127.26s-.061.128-.07.146c-.014.208-.035.421-.063.63a.809.809,0,0,1-.2.475.635.635,0,0,1,.018.184,3.187,3.187,0,0,1-.041.44c-.034.2-.06.407-.1.627s-.064.426-.094.626a3.121,3.121,0,0,0-.043.442.12.12,0,0,0,.051.106.5.5,0,0,0,.164.046c.07.01.148.019.253.031a2.021,2.021,0,0,1,.329.071c-.007,0-.019.01-.039.044s-.035.065-.049.1a.73.73,0,0,1-.069.088c-.023.029-.043.044-.065.044m-.532-3.026a1.3,1.3,0,0,1-.048-.263c-.01-.1-.018-.208-.024-.325l-.03-.584a6.058,6.058,0,0,0-.408.575c-.161.244-.324.513-.5.809s-.353.609-.535.926l-.512.9c-.158.284-.3.536-.433.747s-.229.382-.293.475v.154h.229s.048-.017.129-.038c.08-.037.162-.058.252-.092s.174-.059.252-.088.115-.04.12-.04c.027,0,.04,0,.04.01v.008c0,.017.012.021.041.021a1.345,1.345,0,0,0,.22-.063l.426-.154c.159-.058.314-.121.472-.181s.265-.107.343-.142v-.294c-.115-.05-.171-.087-.171-.117a2.158,2.158,0,0,1,.281-.828c-.028-.219-.048-.394-.055-.513s-.017-.2-.017-.225a.966.966,0,0,1,.222-.682" transform="translate(-35.84 -232.27)"></path><path class="c" d="M75.171,325.328a.448.448,0,0,0-.25-.04c-.04,0-.077.038-.107.1a.417.417,0,0,0-.053.177h-.029a.135.135,0,0,1-.1-.036,1.24,1.24,0,0,1-.774.388.174.174,0,0,1-.131-.036l-.109.079.021-.054c0-.016-.018-.025-.05-.025a.28.28,0,0,0-.1.036.221.221,0,0,1-.124.044c-.077,0-.174-.071-.3-.213-.086-.113-.175-.219-.258-.317a1.032,1.032,0,0,0,.15-.154.069.069,0,0,0-.06-.033.269.269,0,0,0-.12.042.75.75,0,0,0-.046-.2.568.568,0,0,1-.046-.194.543.543,0,0,1,.1-.267.506.506,0,0,0,.1-.271.591.591,0,0,0-.038-.209l.077.037c0-.062-.005-.125-.005-.192a.18.18,0,0,0-.072-.148.646.646,0,0,0,.228-.613c.032,0,.086-.038.16-.111v-.013a.809.809,0,0,0-.083-.194l.043.01c.1,0,.186-.1.236-.3.066-.273.1-.417.11-.43a.59.59,0,0,0,.18-.156c.078-.108.131-.173.147-.2a1.183,1.183,0,0,1-.049-.312V321.5a.665.665,0,0,0,.1-.052.229.229,0,0,0-.083-.152.193.193,0,0,0,.151-.158.647.647,0,0,1,.06-.175,2.844,2.844,0,0,0,.288-.48,1.651,1.651,0,0,1,.318-.459.234.234,0,0,0-.149-.063.228.228,0,0,0,.039-.111.128.128,0,0,1,.09.04c.053-.05.136-.125.248-.221-.006-.023-.034-.05-.086-.077s-.073-.065-.073-.1.046-.109.14-.217a.813.813,0,0,0,.14-.167.162.162,0,0,0,.116.039l.071-.073a.5.5,0,0,0-.187-.152,2.2,2.2,0,0,0,.315-.649.362.362,0,0,1,.388-.244.558.558,0,0,1,.19.069,1.7,1.7,0,0,1,.176.094c-.013.069-.024.171-.035.309-.155,0-.253.1-.3.307a.838.838,0,0,0-.168.369.993.993,0,0,1-.2.421c-.253.236-.38.4-.38.5a.166.166,0,0,0,.021.086,1.171,1.171,0,0,0-.228.436.176.176,0,0,0,.027.094.6.6,0,0,0-.309.294c-.026.136-.053.269-.088.411a.524.524,0,0,0-.288.469,2.172,2.172,0,0,1-.239.367.3.3,0,0,1,.058.175.89.89,0,0,1-.2.438.909.909,0,0,0-.207.444.28.28,0,0,0,.042.142c-.091.035-.156.248-.187.634a.331.331,0,0,0-.062.194.2.2,0,0,0,.019.084h-.027a.193.193,0,0,0-.094.031,2.277,2.277,0,0,1,.164.542c.067.29.155.427.268.427a3.12,3.12,0,0,0,.657-.25,4.519,4.519,0,0,1,.613-.261c.023-.006.043,0,.043.015s.01.021.038.021c.331-.315.549-.476.655-.476.025,0,.037,0,.037.017s.016.016.039.016a.408.408,0,0,0,.17-.067.44.44,0,0,1,.212-.069l.056.013a2.217,2.217,0,0,1-.477.511,6.574,6.574,0,0,0-.523.49" transform="translate(-54.069 -236.578)"></path><path class="c" d="M88.362,325.328c-.027-.027-.108-.04-.253-.04-.036,0-.073.038-.1.1a.407.407,0,0,0-.051.177h-.03a.135.135,0,0,1-.1-.036,1.234,1.234,0,0,1-.773.388c-.065,0-.11-.011-.126-.036l-.113.079.022-.054c0-.016-.02-.025-.053-.025a.267.267,0,0,0-.1.036.23.23,0,0,1-.125.044c-.076,0-.173-.071-.3-.213-.092-.113-.176-.219-.263-.317a1.059,1.059,0,0,0,.15-.154.07.07,0,0,0-.061-.033.28.28,0,0,0-.118.042.79.79,0,0,0-.043-.2.6.6,0,0,1-.046-.194.562.562,0,0,1,.1-.267.546.546,0,0,0,.1-.271.467.467,0,0,0-.041-.209l.077.037c0-.062-.007-.125-.007-.192a.173.173,0,0,0-.07-.148.639.639,0,0,0,.227-.613c.036,0,.087-.038.161-.111v-.013a.824.824,0,0,0-.081-.194l.042.01c.1,0,.185-.1.239-.3.067-.273.1-.417.107-.43a.5.5,0,0,0,.18-.156c.079-.108.129-.173.15-.2a1.065,1.065,0,0,1-.05-.312V321.5a.488.488,0,0,0,.1-.052.224.224,0,0,0-.078-.152.193.193,0,0,0,.147-.158.6.6,0,0,1,.057-.175,2.64,2.64,0,0,0,.292-.48,1.574,1.574,0,0,1,.314-.459.212.212,0,0,0-.145-.063.219.219,0,0,0,.041-.111.118.118,0,0,1,.086.04c.054-.05.137-.125.25-.221-.006-.023-.037-.05-.083-.077s-.076-.065-.076-.1.046-.109.138-.217a.759.759,0,0,0,.141-.167.175.175,0,0,0,.12.039l.071-.073a.5.5,0,0,0-.191-.152,2.084,2.084,0,0,0,.318-.649.358.358,0,0,1,.388-.244.55.55,0,0,1,.189.069,1.54,1.54,0,0,1,.176.094c-.01.069-.023.171-.037.309-.152,0-.249.1-.3.307-.046.029-.1.146-.167.369a.972.972,0,0,1-.208.421c-.249.236-.378.4-.378.5a.152.152,0,0,0,.02.086,1.234,1.234,0,0,0-.229.436.183.183,0,0,0,.031.094.593.593,0,0,0-.308.294c-.027.136-.054.269-.091.411a.508.508,0,0,0-.283.469,2.092,2.092,0,0,1-.244.367.309.309,0,0,1,.062.175.848.848,0,0,1-.205.438.922.922,0,0,0-.2.444.3.3,0,0,0,.041.142c-.094.035-.155.248-.191.634a.35.35,0,0,0-.058.194.2.2,0,0,0,.019.084h-.027a.176.176,0,0,0-.093.031,2.62,2.62,0,0,1,.16.542c.068.29.156.427.268.427a3.058,3.058,0,0,0,.656-.25,5.523,5.523,0,0,1,.613-.261c.027-.006.041,0,.041.015s.018.021.042.021c.334-.315.547-.476.655-.476.028,0,.04,0,.04.017s.016.016.038.016a.385.385,0,0,0,.169-.067.461.461,0,0,1,.212-.069l.056.013a2.115,2.115,0,0,1-.475.511c-.268.236-.445.4-.525.49" transform="translate(-63.884 -236.578)"></path><path class="c" d="M121.3,320.508l-1.666.073a1.012,1.012,0,0,1-.127.131.388.388,0,0,1-.137.017c-.058,0-.11-.008-.155-.015s-.083,0-.116,0a.126.126,0,0,1-.1-.062c-.032-.042-.057-.065-.093-.065a.148.148,0,0,0-.058.025.543.543,0,0,1-.094.058.424.424,0,0,1-.107.073.418.418,0,0,1-.148.037c-.083.017-.165.031-.255.052s-.171.04-.253.059a.534.534,0,0,0-.15.048c-.151.094-.3.181-.442.263s-.268.159-.389.223-.21.115-.287.152a.763.763,0,0,1-.14.059c-.029,0-.043,0-.043-.013v-.013c0-.012-.012-.015-.04-.015-.3.156-.574.3-.834.413s-.5.2-.725.269a2.132,2.132,0,0,0-.273.547c-.082.221-.161.45-.229.678s-.129.432-.184.619a1.734,1.734,0,0,1-.128.347,2.365,2.365,0,0,1-.588.187.836.836,0,0,1-.178-.4c.106-.209.194-.378.264-.5s.138-.259.2-.371a1.05,1.05,0,0,1,.124-.206c-.008-.006-.011-.019-.011-.04a.227.227,0,0,1,.045-.1c.027-.058.065-.108.1-.173s.072-.123.1-.177a.347.347,0,0,0,.043-.129.173.173,0,0,0-.126-.071.261.261,0,0,0-.149.081.356.356,0,0,1-.15.084,1.546,1.546,0,0,0-.164.01l-.239.015c-.086,0-.163.01-.239.014s-.133.008-.172.008a.272.272,0,0,1-.273-.146.784.784,0,0,1-.077-.346c0-.05.056-.133.168-.24a3.165,3.165,0,0,1,.389-.309c.145-.1.29-.194.432-.275a.8.8,0,0,1,.293-.117.543.543,0,0,1,.1.019.345.345,0,0,0,.1.021c.18-.067.328-.133.447-.188a1.56,1.56,0,0,0,.3-.186.9.9,0,0,0,.2-.215,1.569,1.569,0,0,0,.133-.271c.02-.063.035-.117.049-.159a.384.384,0,0,0,.018-.117V320.1a2.045,2.045,0,0,0,.33-.576,1.75,1.75,0,0,0,.142-.642v-.083a.392.392,0,0,1,.246-.142,4.311,4.311,0,0,1,.143-.45.5.5,0,0,1,.156-.215,2.145,2.145,0,0,1,.225-.617v-.108a2.425,2.425,0,0,1,.2-.893l-.068-.113c-.275.036-.541.065-.806.094a5.387,5.387,0,0,0-.74.117,2.75,2.75,0,0,0-.612.208,1.123,1.123,0,0,0-.428.359.246.246,0,0,0,.054.071c.023.029.05.059.074.088a.507.507,0,0,1,.078.142.471.471,0,0,1,.035.182v.083a4.631,4.631,0,0,0-.45-.265c-.191-.1-.416-.213-.684-.329a.351.351,0,0,0-.079-.259.576.576,0,0,1,.093-.186.468.468,0,0,1,.177-.142,1.954,1.954,0,0,1,.325-.127c.141-.044.319-.1.538-.161a3.889,3.889,0,0,1,.849-.163c.021,0,.04,0,.04.015a.043.043,0,0,0-.024.037c0,.013.016.021.039.034s.053-.021.053-.071.014-.065.047-.065a.568.568,0,0,1,.212.065.543.543,0,0,0,.216.071c.027,0,.056-.021.092-.071a.123.123,0,0,1,.1-.065c.025,0,.043.01.044.027s.023.023.055.023a.051.051,0,0,0,.057-.048.063.063,0,0,1,.06-.046,1.431,1.431,0,0,0,.274-.033,1.305,1.305,0,0,1,.275-.044.855.855,0,0,1,.144.031,2.462,2.462,0,0,1,.237.071c.086.029.16.05.234.073a.565.565,0,0,0,.14.035,1.057,1.057,0,0,1,.426-.133.5.5,0,0,1,.094.034c.058.021.116.042.185.064s.126.048.183.073a.366.366,0,0,0,.107.035c.1,0,.191,0,.282,0a1.36,1.36,0,0,1,.312.056c.12.037.268.092.442.165a6.517,6.517,0,0,1,.673.319c.136.073.264.142.379.2a1.12,1.12,0,0,1,.3.2.8.8,0,0,1,.182.288,1.272,1.272,0,0,1,.065.444,1.627,1.627,0,0,1-.131.724,1.3,1.3,0,0,1-.445.476,1.7,1.7,0,0,0-.12.235.531.531,0,0,0-.1-.021c-.045-.008-.094-.023-.148-.033a.116.116,0,0,1,.012.06.4.4,0,0,1-.083.217,1.359,1.359,0,0,1-.225.25,2.531,2.531,0,0,1-.322.254,1.965,1.965,0,0,1-.394.225.183.183,0,0,0,.113.144l2.1.11Zm-6.723.963c-.206.113-.387.221-.532.313s-.225.175-.225.236v.023a1.262,1.262,0,0,0,.339.09.335.335,0,0,0,.309-.208.965.965,0,0,0,.109-.453m2.2-.546c-.194.054-.4.1-.6.15a4.185,4.185,0,0,0-.538.156,1.153,1.153,0,0,0-.408.246.665.665,0,0,0-.2.4q.012-.012.448-.225a1.9,1.9,0,0,1,.408-.182c.027,0,.047,0,.05.017a.049.049,0,0,0,.047.021,2.161,2.161,0,0,0,.785-.584m3.638-3.218c0-.536-1.032-1.005-3.111-1.4a1.662,1.662,0,0,1-.112.494,8.762,8.762,0,0,1-.609,1.31,1.553,1.553,0,0,1-.315.4.3.3,0,0,0,.031.1.284.284,0,0,1,.023.094c-.007,0-.007,0-.007,0a.037.037,0,0,1-.008.021.056.056,0,0,0,0,.023l-.1.225c-.113.265-.225.5-.328.719a.857.857,0,0,1-.308.388c-.014.073-.03.167-.049.28s-.047.234-.072.384h.22a1.091,1.091,0,0,0,.528-.121l.09.083a.25.25,0,0,1,.2-.083.305.305,0,0,1,.113.021.4.4,0,0,0,.114.019,1.008,1.008,0,0,0,.1-.037c.067-.021.132-.046.215-.077a1.62,1.62,0,0,0,.211-.081c.062-.023.1-.039.105-.039.093-.019.186-.034.282-.048s.185-.015.282-.019c.077-.079.128-.121.164-.121s.048.008.053.025.019.023.044.023a.537.537,0,0,0,.118-.075c.071-.056.144-.113.233-.173.089-.075.2-.163.327-.257.058,0,.088.015.088.031v.006a.333.333,0,0,1,.068-.121.572.572,0,0,1,.1-.079.538.538,0,0,1,.087-.052c.029-.006.037-.01.032-.01a7.861,7.861,0,0,1,.8-.757v-.075a.233.233,0,0,1-.008-.069.268.268,0,0,1,.018-.094h-.009a1.882,1.882,0,0,1,.26-.058.192.192,0,0,1-.048-.138.769.769,0,0,1,.027-.142c.021-.062.041-.123.062-.2s.038-.129.057-.2a.427.427,0,0,0,.031-.131" transform="translate(-83.788 -234.917)"></path><path class="c" d="M144.919,334.9s-.091.092-.255.265c-.14.146-.208.227-.208.254a.229.229,0,0,0,.019.083c-.392.156-.606.328-.645.511-.208.065-.318.1-.341.1a.337.337,0,0,0-.216.259c-.165-.012-.225-.021-.178-.021l-.073.008a.329.329,0,0,0,.1.1,3.379,3.379,0,0,1-.626.054.152.152,0,0,1-.1-.054.17.17,0,0,0-.1-.05c-.022,0-.03,0-.036.016a.074.074,0,0,1-.043.013.455.455,0,0,1-.338-.231l-.256-.382v-.422c0-.171-.018-.254-.051-.254s-.087.067-.114.2a1.418,1.418,0,0,1-.541.333.031.031,0,0,0-.014.023c0-.025.007.006.024.1a.588.588,0,0,0-.261.18c-.072.085-.142.164-.211.234a1.378,1.378,0,0,1-.352.242,2.726,2.726,0,0,0-.35.213c-.132-.037-.268-.077-.409-.108a.333.333,0,0,1-.216-.338,1.069,1.069,0,0,1,.287-.615c.195-.24.365-.359.52-.359,0-.034-.046-.05-.131-.05a5.73,5.73,0,0,0,.357-.469.985.985,0,0,1,.416-.375l-.1-.088c.19-.1.284-.2.284-.3a.145.145,0,0,0-.027-.079c.05-.008.132-.021.239-.033a.96.96,0,0,1-.013-.23,1.237,1.237,0,0,0,.239-.2.694.694,0,0,0,.191-.242.739.739,0,0,1,.09.013.307.307,0,0,0,.09.019c.257-.486.528-.726.823-.726a.6.6,0,0,1,.35.108.393.393,0,0,1,.147.324.2.2,0,0,1-.13.184c.059.046.148.117.257.208,0,.088,0,.2-.01.352-.081.09-.216.211-.4.369-.006.06-.016.146-.036.256a2.473,2.473,0,0,0-.182.432c0,.021-.057.138-.145.338a1.068,1.068,0,0,0-.132.294,1.054,1.054,0,0,0,.165.478c.109.2.218.3.324.3a1.157,1.157,0,0,1,.167.014c.072.008.13.017.168.017s.095-.062.212-.179.183-.177.205-.177.031,0,.037.01.014.013.029.013a1.2,1.2,0,0,0,.239-.188c.145-.129.236-.2.266-.225a.626.626,0,0,1,.237-.025c.125,0,.177-.067.16-.208.1-.088.268-.213.481-.384a.425.425,0,0,0,.111.083m-2.8-1.272a.167.167,0,0,1-.029-.194.161.161,0,0,1-.149-.011,1.025,1.025,0,0,1-.1.134.384.384,0,0,0-.278.154c-.068.086-.136.179-.207.279a.565.565,0,0,0-.131.017,10.061,10.061,0,0,1-1.027,1.249.207.207,0,0,0-.134.073.116.116,0,0,1,.023.071.524.524,0,0,1-.124.25.487.487,0,0,0-.116.326,1.52,1.52,0,0,0,.535-.246,1,1,0,0,0,.415-.4h.016c.054,0,.148-.071.277-.209a1.04,1.04,0,0,0,.217-.3l.08.071c.172-.067.258-.121.258-.163a.06.06,0,0,0-.049-.062c-.031,0-.047-.013-.047-.021s.118-.171.348-.48a1.054,1.054,0,0,0,.224-.534" transform="translate(-103.497 -247.348)"></path><path class="c" d="M160.346,331.087l.333-.959a.855.855,0,0,1,.758-.544.8.8,0,0,1,.222.109.656.656,0,0,1,.215.146,1.651,1.651,0,0,0,.048.225c0,.05-.043.117-.128.213s-.15.138-.188.138a.122.122,0,0,1-.1-.031c-.037.081-.148.282-.337.6a1.281,1.281,0,0,0-.221.644.91.91,0,0,0,.068.378l2.485-.58v.238c-.019,0-.208.1-.564.3a3.76,3.76,0,0,1-.509.246.6.6,0,0,1-.289-.063c-.017,0-.025.036-.017.1a.408.408,0,0,0-.152-.025,2.033,2.033,0,0,0-.6.262,3.406,3.406,0,0,1-.338.05,1.61,1.61,0,0,0-.105.5,5.085,5.085,0,0,1-.061.563.227.227,0,0,1-.108-.073.092.092,0,0,0-.01.044.72.72,0,0,0,.01.075c0,.038.005.067.005.088-.031.015-.083.034-.153.069,0,.031.03.044.1.044v.154a6.613,6.613,0,0,1-.757.674,2.233,2.233,0,0,0-.3.037,1.72,1.72,0,0,1-.3.036.946.946,0,0,1-.266-.142,2.336,2.336,0,0,0-.314-.188.434.434,0,0,0-.146-.225.4.4,0,0,1-.07-.277.924.924,0,0,1,.216-.623c.147-.161.3-.323.448-.49l-.01.031c0,.025.024.037.072.037.11,0,.152-.092.119-.275.09-.019.187-.038.282-.063a.4.4,0,0,0,.233-.131c.032-.006.124-.011.272-.021a1.006,1.006,0,0,0,.216-.532.178.178,0,0,0-.08-.123c-.1.117-.194.175-.268.175a.1.1,0,0,1-.077-.04c-.023-.019-.037-.033-.052-.033,0-.038-.011.029-.027.2a.478.478,0,0,1-.139.042.04.04,0,0,1-.034-.017.052.052,0,0,0-.043-.025.277.277,0,0,0-.049.011.256.256,0,0,1-.043.014c-.072,0-.115-.058-.129-.165a2,2,0,0,0,.464-.352,3.548,3.548,0,0,1,.452-.4Zm.056,1.792c0,.029-.013-.008-.037-.1a1.266,1.266,0,0,0-.19.052,4.962,4.962,0,0,0-.746.54,3.2,3.2,0,0,1-.09.325,1.379,1.379,0,0,0-.081.313.348.348,0,0,0,.023.1.669.669,0,0,1,.02.084h.14a.851.851,0,0,0,.676-.475,1.566,1.566,0,0,0,.286-.834" transform="translate(-117.948 -245.172)"></path><path class="c" d="M173.444,331.087l.342-.959a.849.849,0,0,1,.756-.544.861.861,0,0,1,.225.109.61.61,0,0,1,.211.146,2.2,2.2,0,0,0,.05.225c0,.05-.044.117-.131.213s-.146.138-.187.138a.13.13,0,0,1-.1-.031,6.129,6.129,0,0,1-.338.6,1.288,1.288,0,0,0-.217.644.849.849,0,0,0,.07.378l2.485-.58v.238c-.023,0-.21.1-.57.3a3.424,3.424,0,0,1-.5.246.586.586,0,0,1-.289-.063c-.019,0-.026.036-.019.1a.4.4,0,0,0-.151-.025,2.021,2.021,0,0,0-.6.262,3.235,3.235,0,0,1-.336.05,1.455,1.455,0,0,0-.109.5c-.027.319-.047.511-.06.563a.209.209,0,0,1-.108-.073.092.092,0,0,0-.013.044c0,.01.006.038.013.075a.758.758,0,0,1,.011.088c-.037.015-.088.034-.165.069,0,.031.039.044.106.044v.154a7.092,7.092,0,0,1-.754.674,2.131,2.131,0,0,0-.308.037,1.757,1.757,0,0,1-.306.036,1.084,1.084,0,0,1-.264-.142,2.984,2.984,0,0,0-.308-.188.434.434,0,0,0-.15-.225.415.415,0,0,1-.071-.277.9.9,0,0,1,.221-.623c.144-.161.3-.323.447-.49l-.008.031c0,.025.022.037.066.037.115,0,.152-.092.121-.275.091-.019.187-.038.278-.063a.417.417,0,0,0,.238-.131c.034-.006.124-.011.268-.021a.988.988,0,0,0,.221-.532.189.189,0,0,0-.084-.123.422.422,0,0,1-.27.175.1.1,0,0,1-.076-.04.1.1,0,0,0-.048-.033c0-.038-.012.029-.03.2a.448.448,0,0,1-.141.042.057.057,0,0,1-.039-.017c0-.017-.019-.025-.039-.025a.294.294,0,0,0-.046.011c-.021.006-.039.014-.043.014-.075,0-.116-.058-.129-.165a2.04,2.04,0,0,0,.466-.352,3.693,3.693,0,0,1,.447-.4Zm.066,1.792c0,.029-.016-.008-.043-.1a1.329,1.329,0,0,0-.186.052,4.706,4.706,0,0,0-.746.54,3.2,3.2,0,0,1-.09.325,1.353,1.353,0,0,0-.08.313.328.328,0,0,0,.018.1.284.284,0,0,1,.024.084h.14a.856.856,0,0,0,.673-.475,1.563,1.563,0,0,0,.29-.834" transform="translate(-127.694 -245.172)"></path><path class="c" d="M190.745,327.627q0,.266-.456.634a4.835,4.835,0,0,1-.686.45,1.018,1.018,0,0,1-.4.092.709.709,0,0,1-.119.179,3.941,3.941,0,0,1-.579.344,2.331,2.331,0,0,1-.554.265,1.681,1.681,0,0,0-.331.05,1.353,1.353,0,0,1-.334.05.572.572,0,0,1-.437-.294.958.958,0,0,1-.223-.534,1.514,1.514,0,0,1,.16-.436,1.685,1.685,0,0,1,.243-.413c0-.075.07-.19.214-.342a5.367,5.367,0,0,1,.577-.959c.343-.488.589-.73.728-.73a.511.511,0,0,0,.269.107c.025.094.039.131.039.113a.953.953,0,0,1-.039.215.678.678,0,0,0-.04.2q-.294.266-.587.521a2.027,2.027,0,0,0-.469.592.207.207,0,0,0-.13.163c-.025.154-.037.229-.037.238-.053.1-.107.2-.152.3a.75.75,0,0,0-.086.338c0,.259.058.388.179.388a2.257,2.257,0,0,0,.593-.15c.345-.133.546-.208.606-.229a.129.129,0,0,0,.035-.1,4.053,4.053,0,0,0,.591-.286c.014-.013.014-.054,0-.121a.273.273,0,0,1,.089-.011c.026,0,.043.011.043.019s-.038.054-.1.092a4.587,4.587,0,0,0,.689-.5,3.645,3.645,0,0,0,.565-.286c0,.008.022.008.065.008s.075.017.075.046m.764-4.054c-.04.046-.081.1-.152.181-.041-.044-.07-.062-.094-.062a.121.121,0,0,0-.119.062l-.086-.062-.027.052.009.042a.163.163,0,0,1-.052-.016.133.133,0,0,0-.056-.015.427.427,0,0,0-.144.056.456.456,0,0,1-.134.056c-.263.056-.66.148-1.18.273a1.661,1.661,0,0,1-.311.259,3.185,3.185,0,0,0-.327.238.8.8,0,0,1-.25-.238,3.339,3.339,0,0,0-.215-.276V324.1c-.008-.05.019-.1.089-.156a.255.255,0,0,1,.168-.09c.02,0,.028,0,.028.01v.01c0,.015.01.021.029.021,0,0,.043-.021.147-.075a.8.8,0,0,1,.3-.069.572.572,0,0,1,.127.021.864.864,0,0,0,.131.023,1.367,1.367,0,0,1,.676-.259c.22-.013.429-.025.636-.039a2.563,2.563,0,0,1,.611-.015c.041-.021.063-.037.063-.058.026.034.069.079.13.146" transform="translate(-138.831 -240.593)"></path><path class="c" d="M205.2,332.707c-.129-.008-.237-.015-.316-.015-.064,0-.173.006-.318.015s-.255.01-.329.01a.167.167,0,0,0-.081.035.111.111,0,0,1-.076.034c-.06,0-.155,0-.277-.015s-.22-.015-.279-.015a.281.281,0,0,0-.144.054.4.4,0,0,1-.145.046.706.706,0,0,1-.177-.035.755.755,0,0,0-.177-.036.5.5,0,0,0-.282.167l-.248.234a5.063,5.063,0,0,1-.128.776,1.159,1.159,0,0,1-.353.669.1.1,0,0,0,.1.082c-.249.415-.493.83-.734,1.251a1.459,1.459,0,0,1-1.155.707c-.1,0-.193-.075-.3-.211a.633.633,0,0,1-.159-.363c0-.038.046-.1.134-.175a.216.216,0,0,0-.167-.065c.054-.2.151-.511.288-.907l.029.073a2.785,2.785,0,0,0,.319-.649.757.757,0,0,1,.457-.5.1.1,0,0,0-.109-.092c.094-.065.227-.156.408-.29a.1.1,0,0,0-.1-.088c.114-.138.239-.279.365-.421a.73.73,0,0,0,.178-.515c1.021-.048,1.536-.069,1.547-.069a1.823,1.823,0,0,1,.238.021,1.749,1.749,0,0,0,.241.017.831.831,0,0,0,.223-.046.69.69,0,0,1,.223-.054,1,1,0,0,1,.253.063,1.051,1.051,0,0,0,.265.063,6.714,6.714,0,0,1,.683.027Zm-3.406.776a1.249,1.249,0,0,0-.019-.148.639.639,0,0,1-.022-.138,2.14,2.14,0,0,0-.549.649,5.139,5.139,0,0,1-.512.7,3.769,3.769,0,0,0-.416,1.126v.288c.067-.029.167-.062.308-.106a4.13,4.13,0,0,0,.731-1.137,3.76,3.76,0,0,0,.48-1.239" transform="translate(-148.472 -247.22)"></path><path class="c" d="M220.83,336.038c-.083.067-.336.367-.757.876-.135.058-.272.113-.4.175-.2.1-.3.184-.3.267a3.667,3.667,0,0,0-.542.154,1.929,1.929,0,0,1-.534.113.879.879,0,0,1-.823-.526,2.2,2.2,0,0,1-.23-1.043,2.7,2.7,0,0,1,.109-.676c.058-.217.121-.434.187-.659-.045,0-.187.129-.423.388a1.992,1.992,0,0,1-.406.384.076.076,0,0,1-.064-.031.926.926,0,0,1-.061.123l.073.023c-.7.788-1.107,1.186-1.213,1.186a.675.675,0,0,0-.109.015.55.55,0,0,1-.107.01c-.054,0-.111-.046-.18-.133a.438.438,0,0,1-.1-.23,1.044,1.044,0,0,1,.418-.657c0-.034-.022-.05-.062-.05.338-.882.621-1.56.845-2.038v-.05a1.249,1.249,0,0,1,.067-.346.214.214,0,0,1,.142-.083.508.508,0,0,1,.287.094.291.291,0,0,1,.14.253c0,.023-.137.321-.4.893a7.554,7.554,0,0,0-.4.909c0,.008.006.008.02.008a.347.347,0,0,0,.248-.09.442.442,0,0,1,.2-.115c.172-.188.346-.384.526-.58q.408-.407.6-.413a.341.341,0,0,0,.029-.142,2.368,2.368,0,0,0,.385-.317c.193-.181.295-.279.3-.279a1.354,1.354,0,0,1,.276.071.667.667,0,0,1,.247.115c-.057.173-.123.355-.2.54-.028.016-.064.039-.12.075a9.349,9.349,0,0,1-.573,1.158v.069a1.008,1.008,0,0,1-.066.352,1.235,1.235,0,0,0-.074.348,1.256,1.256,0,0,0,.15.573c.113.221.247.336.416.336a3.826,3.826,0,0,0,1.032-.325c.023,0,.045.029.07.092.009,0,.174-.133.5-.4a.854.854,0,0,1,.568-.229.758.758,0,0,1,.089-.188Zm-4.221-.947h-.052v.125h.052Zm.07.031-.051-.1-.04.021.04.081Z" transform="translate(-159.899 -247.886)"></path><path class="c" d="M240.887,344.592a.767.767,0,0,1-.21.407c-.189.246-.294.382-.307.409a1.115,1.115,0,0,0-.364.252.716.716,0,0,1-.4.221c-.062,0-.137-.088-.216-.259l.894-1.333c.121.021.245.042.366.054.161.04.238.125.238.248" transform="translate(-178.079 -256.113)"></path><path class="c" d="M271.045,318.246c-.035,0-.05,0-.05-.01l.011-.008c0-.025-.019-.029-.054-.029a4.341,4.341,0,0,0-.523.265v-.01a.686.686,0,0,1,.01.2.269.269,0,0,1-.045.163.283.283,0,0,0-.046.159.684.684,0,0,0,.036.173.672.672,0,0,1,.033.184c0,.091-.052.164-.169.229a1.606,1.606,0,0,1,.092.459c0,.046-.058.127-.184.236a.254.254,0,0,1,.154.246.713.713,0,0,1-.027.154.839.839,0,0,0-.023.162c.042.05.1.113.188.2a.176.176,0,0,0-.008.069,1.1,1.1,0,0,0,.03.229.819.819,0,0,1,.037.221.623.623,0,0,1-.046.229,1.133,1.133,0,0,1-.113.244,1,1,0,0,1-.15.188.264.264,0,0,1-.167.075.436.436,0,0,1-.246-.094.277.277,0,0,1-.134-.223.281.281,0,0,1,.113-.242c0-.069,0-.173-.011-.3s-.013-.229-.013-.3a.541.541,0,0,1,.023-.159,2.154,2.154,0,0,1,.108-.259.615.615,0,0,1-.056-.286,1.075,1.075,0,0,1,.019-.209c.019-.086.038-.184.058-.282s.038-.194.05-.288a1.126,1.126,0,0,0,.029-.208.431.431,0,0,0-.058-.234.283.283,0,0,0,.117-.194.55.55,0,0,0-.1-.382.726.726,0,0,0-.471-.1s-.04.016-.1.035-.141.054-.237.09-.2.075-.313.117-.221.083-.329.117-.2.062-.271.088a.775.775,0,0,1-.175.039.246.246,0,0,1-.159-.081,4.726,4.726,0,0,0-.454.509c-.15.184-.276.361-.388.528a4.9,4.9,0,0,0-.256.444.739.739,0,0,0-.1.263.149.149,0,0,0,.1.15,2,2,0,0,1-.7,1.01c-.033-.021-.077-.046-.129-.075s-.117-.067-.19-.108c.048-.15.086-.292.121-.434a3.236,3.236,0,0,1,.128-.4,2.231,2.231,0,0,1,.211-.4,2.276,2.276,0,0,1,.356-.422v-.284c-.171-.075-.256-.171-.256-.279a.21.21,0,0,1,.113-.19c.077-.044.169-.1.283-.156a2.2,2.2,0,0,0,.365-.261,1.682,1.682,0,0,0,.38-.507,1.582,1.582,0,0,1,.219-.326,1.407,1.407,0,0,1,.208-.206V317.7a.866.866,0,0,1,.09-.361,3.281,3.281,0,0,1,.234-.409c.09-.138.188-.3.287-.463a4.994,4.994,0,0,0,.305-.551c.039-.083.068-.142.087-.183s.038-.061.063-.061c.042,0,.068.01.068.031l.008.017a.148.148,0,0,0,.04-.113c0-.044-.031-.079-.092-.1h.179a.225.225,0,0,0,.032-.134.486.486,0,0,0-.032-.163c.184-.327.384-.686.595-1.068s.463-.857.738-1.41c.01-.05.02-.113.031-.173s.031-.113.046-.161a.282.282,0,0,1,.092-.123.235.235,0,0,1,.158-.044.2.2,0,0,1,.092.019c.046.014.089.029.129.046l.121.048c.037.013.058.021.058.029a.739.739,0,0,0,0,.217.668.668,0,0,0,.05.146.119.119,0,0,0,.108.069v.6a.566.566,0,0,1-.058.2,2.944,2.944,0,0,1-.121.273c-.046.094-.092.177-.133.26a1.362,1.362,0,0,0-.065.146c-.016.208-.035.421-.064.63a.821.821,0,0,1-.2.475.666.666,0,0,1,.017.184,3.272,3.272,0,0,1-.042.44c-.034.2-.063.407-.092.627s-.069.426-.1.626a3.34,3.34,0,0,0-.042.442.11.11,0,0,0,.054.106.4.4,0,0,0,.161.046c.069.01.153.019.251.031a1.937,1.937,0,0,1,.331.071c-.008,0-.023.01-.038.044s-.037.065-.056.1a.306.306,0,0,1-.062.088.092.092,0,0,1-.063.044m-.54-3.026a1.735,1.735,0,0,1-.046-.263c-.013-.1-.013-.208-.021-.325l-.033-.584a5.986,5.986,0,0,0-.4.575c-.162.244-.326.513-.5.809s-.355.609-.538.926-.351.62-.509.9-.3.536-.436.747a5.369,5.369,0,0,1-.291.475v.154h.227c.013,0,.052-.017.133-.038.079-.037.162-.058.248-.092s.175-.059.252-.088.117-.04.125-.04c.027,0,.038,0,.038.01v.008c0,.017.012.021.042.021a1.45,1.45,0,0,0,.218-.063l.428-.154.472-.181c.15-.061.267-.107.338-.142v-.294c-.113-.05-.163-.087-.163-.117a2.231,2.231,0,0,1,.271-.828c-.025-.219-.042-.394-.052-.513s-.015-.2-.015-.225a.978.978,0,0,1,.217-.682" transform="translate(-197.686 -232.27)"></path><path class="c" d="M292.738,325.328c-.025-.027-.108-.04-.25-.04-.037,0-.071.038-.107.1a.41.41,0,0,0-.05.177H292.3a.121.121,0,0,1-.1-.036,1.251,1.251,0,0,1-.773.388c-.067,0-.111-.011-.131-.036l-.107.079.015-.054c0-.016-.015-.025-.046-.025a.249.249,0,0,0-.1.036.243.243,0,0,1-.129.044c-.067,0-.167-.071-.294-.213-.086-.113-.173-.219-.257-.317a1.106,1.106,0,0,0,.147-.154.07.07,0,0,0-.059-.033.316.316,0,0,0-.123.042.6.6,0,0,0-.044-.2.644.644,0,0,1-.046-.194.624.624,0,0,1,.1-.267.526.526,0,0,0,.1-.271.575.575,0,0,0-.04-.209l.079.037c0-.062-.008-.125-.008-.192a.174.174,0,0,0-.071-.148.623.623,0,0,0,.225-.613c.038,0,.092-.038.161-.111v-.013a.872.872,0,0,0-.078-.194l.037.01c.1,0,.188-.1.24-.3.069-.273.1-.417.11-.43a.616.616,0,0,0,.18-.156c.077-.108.127-.173.146-.2a.968.968,0,0,1-.05-.312V321.5a.483.483,0,0,0,.1-.052.222.222,0,0,0-.079-.152.2.2,0,0,0,.15-.158.743.743,0,0,1,.058-.175,3,3,0,0,0,.288-.48,1.657,1.657,0,0,1,.317-.459.224.224,0,0,0-.15-.063.19.19,0,0,0,.041-.111.136.136,0,0,1,.092.04c.05-.05.133-.125.246-.221,0-.023-.034-.05-.083-.077s-.075-.065-.075-.1.046-.109.14-.217a.734.734,0,0,0,.14-.167.17.17,0,0,0,.117.039l.071-.073a.51.51,0,0,0-.188-.152,2.2,2.2,0,0,0,.314-.649.364.364,0,0,1,.391-.244.54.54,0,0,1,.187.069,1.352,1.352,0,0,1,.177.094c-.01.069-.023.171-.035.309-.156,0-.254.1-.3.307a.785.785,0,0,0-.167.369.942.942,0,0,1-.213.421c-.255.236-.377.4-.377.5a.161.161,0,0,0,.023.086,1.321,1.321,0,0,0-.234.436.305.305,0,0,0,.033.094.577.577,0,0,0-.309.294c-.025.136-.054.269-.09.411a.514.514,0,0,0-.286.469,1.96,1.96,0,0,1-.242.367.3.3,0,0,1,.063.175.861.861,0,0,1-.2.438.881.881,0,0,0-.209.444.291.291,0,0,0,.042.142c-.1.035-.159.248-.192.634a.361.361,0,0,0-.054.194.19.19,0,0,0,.016.084h-.029a.173.173,0,0,0-.09.031,2.363,2.363,0,0,1,.157.542c.068.29.159.427.271.427a2.979,2.979,0,0,0,.655-.25,5.053,5.053,0,0,1,.613-.261c.031-.006.042,0,.042.015s.014.021.042.021c.33-.315.548-.476.655-.476.023,0,.041,0,.041.017s.011.016.038.016a.47.47,0,0,0,.171-.067.42.42,0,0,1,.206-.069l.061.013a2.2,2.2,0,0,1-.476.511c-.273.236-.442.4-.53.49" transform="translate(-215.915 -236.578)"></path><path class="c" d="M305.936,325.328a.448.448,0,0,0-.248-.04c-.04,0-.077.038-.111.1a.464.464,0,0,0-.048.177H305.5a.124.124,0,0,1-.1-.036,1.261,1.261,0,0,1-.776.388c-.071,0-.112-.011-.133-.036l-.108.079.021-.054c0-.016-.017-.025-.05-.025a.3.3,0,0,0-.1.036.226.226,0,0,1-.125.044c-.073,0-.167-.071-.3-.213a3.264,3.264,0,0,0-.259-.317.71.71,0,0,0,.155-.154.069.069,0,0,0-.059-.033.281.281,0,0,0-.119.042.63.63,0,0,0-.048-.2.788.788,0,0,1-.044-.194.579.579,0,0,1,.1-.267.523.523,0,0,0,.1-.271.615.615,0,0,0-.039-.209l.077.037c-.006-.062-.008-.125-.008-.192a.172.172,0,0,0-.069-.148.66.66,0,0,0,.225-.613c.031,0,.085-.038.156-.111v-.013a1.085,1.085,0,0,0-.071-.194l.034.01c.108,0,.188-.1.236-.3.069-.273.1-.417.11-.43a.477.477,0,0,0,.175-.156c.087-.108.135-.173.15-.2a1.075,1.075,0,0,1-.046-.312V321.5a.4.4,0,0,0,.1-.052.245.245,0,0,0-.075-.152.185.185,0,0,0,.142-.158.606.606,0,0,1,.065-.175,3.41,3.41,0,0,0,.285-.48,1.657,1.657,0,0,1,.317-.459.229.229,0,0,0-.15-.063.205.205,0,0,0,.042-.111.139.139,0,0,1,.092.04c.05-.05.129-.125.246-.221-.006-.023-.038-.05-.084-.077s-.079-.065-.079-.1.046-.109.144-.217a.779.779,0,0,0,.135-.167.176.176,0,0,0,.121.039l.075-.073a.556.556,0,0,0-.2-.152,2,2,0,0,0,.321-.649.353.353,0,0,1,.386-.244.577.577,0,0,1,.19.069,1.9,1.9,0,0,1,.175.094c-.012.069-.023.171-.033.309q-.232,0-.3.307a.8.8,0,0,0-.169.369,1.03,1.03,0,0,1-.207.421c-.252.236-.381.4-.381.5a.185.185,0,0,0,.018.086,1.315,1.315,0,0,0-.225.436.171.171,0,0,0,.029.094.586.586,0,0,0-.309.294c-.025.136-.058.269-.087.411a.519.519,0,0,0-.29.469,2.028,2.028,0,0,1-.24.367.3.3,0,0,1,.061.175.835.835,0,0,1-.2.438.887.887,0,0,0-.2.444.287.287,0,0,0,.039.142c-.093.035-.156.248-.188.634a.347.347,0,0,0-.056.194.148.148,0,0,0,.016.084h-.029a.153.153,0,0,0-.088.031,3.229,3.229,0,0,1,.156.542c.069.29.156.427.269.427a2.971,2.971,0,0,0,.653-.25,4.945,4.945,0,0,1,.618-.261c.027-.006.039,0,.039.015s.013.021.037.021c.336-.315.553-.476.659-.476.025,0,.033,0,.033.017s.017.016.046.016a.444.444,0,0,0,.167-.067.443.443,0,0,1,.207-.069l.066.013a2.28,2.28,0,0,1-.486.511c-.267.236-.438.4-.521.49" transform="translate(-225.735 -236.578)"></path><path class="c" d="M338.886,320.508l-1.67.073a.684.684,0,0,1-.131.131.326.326,0,0,1-.129.017c-.055,0-.109-.008-.159-.015s-.086,0-.117,0a.117.117,0,0,1-.092-.062c-.034-.042-.062-.065-.1-.065a.15.15,0,0,0-.06.025.713.713,0,0,1-.088.058.542.542,0,0,1-.112.073.364.364,0,0,1-.146.037c-.079.017-.165.031-.255.052s-.171.04-.254.059a.556.556,0,0,0-.146.048c-.155.094-.3.181-.442.263l-.388.223c-.117.06-.213.115-.288.152a.74.74,0,0,1-.146.059c-.029,0-.041,0-.041-.013v-.013c0-.012-.008-.015-.037-.015-.3.156-.576.3-.834.413s-.5.2-.726.269a2.229,2.229,0,0,0-.271.547c-.088.221-.158.45-.229.678s-.131.432-.186.619a1.391,1.391,0,0,1-.127.347,2.321,2.321,0,0,1-.588.187.815.815,0,0,1-.175-.4c.1-.209.192-.378.26-.5s.135-.259.2-.371a1.128,1.128,0,0,1,.127-.206c-.006-.006-.008-.019-.008-.04a.208.208,0,0,1,.045-.1c.03-.058.059-.108.1-.173s.071-.123.1-.177a.419.419,0,0,0,.048-.129.179.179,0,0,0-.131-.071.28.28,0,0,0-.151.081.336.336,0,0,1-.145.084,1.622,1.622,0,0,0-.169.01l-.236.015c-.083,0-.158.01-.24.014s-.127.008-.175.008a.281.281,0,0,1-.273-.146.828.828,0,0,1-.069-.346c0-.05.052-.133.165-.24a3.361,3.361,0,0,1,.388-.309c.142-.1.291-.194.431-.275a.823.823,0,0,1,.294-.117.492.492,0,0,1,.1.019.349.349,0,0,0,.1.021c.177-.067.332-.133.446-.188a1.58,1.58,0,0,0,.307-.186.865.865,0,0,0,.2-.215,1.5,1.5,0,0,0,.134-.271c.021-.063.037-.117.05-.159a.43.43,0,0,0,.021-.117V320.1a2.2,2.2,0,0,0,.33-.576,1.787,1.787,0,0,0,.142-.642v-.083a.378.378,0,0,1,.242-.142,4.057,4.057,0,0,1,.146-.45.465.465,0,0,1,.15-.215,2.285,2.285,0,0,1,.229-.617v-.108a2.449,2.449,0,0,1,.2-.893l-.069-.113c-.275.036-.542.065-.8.094a5.54,5.54,0,0,0-.743.117,2.765,2.765,0,0,0-.609.208,1.083,1.083,0,0,0-.427.359.158.158,0,0,0,.053.071l.075.088a.894.894,0,0,1,.075.142.454.454,0,0,1,.034.182v.083a5.086,5.086,0,0,0-.451-.265c-.188-.1-.415-.213-.684-.329a.354.354,0,0,0-.075-.259.5.5,0,0,1,.09-.186.464.464,0,0,1,.177-.142,1.758,1.758,0,0,1,.33-.127c.14-.044.317-.1.536-.161a3.906,3.906,0,0,1,.843-.163c.027,0,.039,0,.039.015a.052.052,0,0,0-.019.037c0,.013.015.021.044.034s.046-.021.046-.071.017-.065.05-.065a.585.585,0,0,1,.213.065.518.518,0,0,0,.217.071c.025,0,.05-.021.092-.071a.112.112,0,0,1,.1-.065c.025,0,.039.01.041.027s.025.023.055.023a.055.055,0,0,0,.063-.048.055.055,0,0,1,.056-.046,1.393,1.393,0,0,0,.273-.033,1.319,1.319,0,0,1,.28-.044.886.886,0,0,1,.142.031,2.317,2.317,0,0,1,.235.071c.081.029.165.05.232.073a.548.548,0,0,0,.141.035,1.049,1.049,0,0,1,.426-.133.694.694,0,0,1,.1.034c.05.021.115.042.179.064s.125.048.184.073a.431.431,0,0,0,.1.035c.1,0,.2,0,.284,0a1.434,1.434,0,0,1,.317.056c.115.037.263.092.438.165a6.442,6.442,0,0,1,.672.319c.14.073.263.142.383.2a1,1,0,0,1,.29.2.859.859,0,0,1,.186.288,1.3,1.3,0,0,1,.061.444,1.606,1.606,0,0,1-.127.724,1.323,1.323,0,0,1-.446.476,1.68,1.68,0,0,0-.119.235.516.516,0,0,0-.1-.021c-.046-.008-.092-.023-.146-.033a.2.2,0,0,1,.008.06.381.381,0,0,1-.081.217,1.538,1.538,0,0,1-.225.25,2.7,2.7,0,0,1-.324.254,2.215,2.215,0,0,1-.392.225.173.173,0,0,0,.11.144l2.1.11Zm-6.728.963c-.2.113-.38.221-.534.313s-.219.175-.219.236v.023a1.225,1.225,0,0,0,.336.09.33.33,0,0,0,.309-.208.924.924,0,0,0,.109-.453m2.2-.546c-.2.054-.394.1-.592.15a3.829,3.829,0,0,0-.54.156,1.1,1.1,0,0,0-.407.246.625.625,0,0,0-.2.4c.009-.008.155-.083.451-.225a1.914,1.914,0,0,1,.4-.182.059.059,0,0,1,.05.017c0,.013.025.021.05.021a2.161,2.161,0,0,0,.78-.584M338,317.707q0-.8-3.108-1.4a1.6,1.6,0,0,1-.116.494,6.036,6.036,0,0,1-.271.665,6.212,6.212,0,0,1-.338.644,1.555,1.555,0,0,1-.309.4.252.252,0,0,0,.028.1.325.325,0,0,1,.023.094s-.008,0-.008,0a.032.032,0,0,1-.006.021.092.092,0,0,0,0,.023l-.1.225c-.113.265-.224.5-.328.719a.9.9,0,0,1-.309.388c-.015.073-.032.167-.05.28s-.048.234-.069.384h.217a1.091,1.091,0,0,0,.528-.121l.085.083a.269.269,0,0,1,.2-.083.314.314,0,0,1,.117.021.381.381,0,0,0,.115.019c.006,0,.037-.014.1-.037s.132-.046.211-.077a1.483,1.483,0,0,0,.213-.081c.067-.023.1-.039.108-.039.092-.019.184-.034.271-.048s.194-.015.3-.019c.067-.079.125-.121.159-.121s.05.008.05.025a.044.044,0,0,0,.044.023.612.612,0,0,0,.121-.075,2.667,2.667,0,0,1,.232-.173c.094-.075.2-.163.326-.257.06,0,.091.015.091.031v.006a.259.259,0,0,1,.071-.121.309.309,0,0,1,.1-.079.4.4,0,0,1,.084-.052c.029-.006.037-.01.033-.01a7.377,7.377,0,0,1,.8-.757v-.075a.175.175,0,0,1-.008-.069.2.2,0,0,1,.017-.094h-.008a1.894,1.894,0,0,1,.257-.058.2.2,0,0,1-.048-.138.539.539,0,0,1,.029-.142c.019-.062.04-.123.063-.2s.033-.129.054-.2a.4.4,0,0,0,.029-.131" transform="translate(-245.65 -234.917)"></path><path class="c" d="M365.636,332.6a.318.318,0,0,1-.2.037.357.357,0,0,1,.008.065c0,.1-.112.2-.342.284s-.338.192-.346.309a9.158,9.158,0,0,0-.888.592,2.187,2.187,0,0,1-.832.442c-.058.034-.1.067-.1.1,0,.012.017.027.044.042h-.031a.836.836,0,0,0-.15.034.114.114,0,0,0-.048.112c-.054.021-.123.046-.218.092-.013,0-.092.05-.228.133a.657.657,0,0,1-.219.092,2.8,2.8,0,0,0-.321.031,1.782,1.782,0,0,1-.315.04.5.5,0,0,1-.45-.207.154.154,0,0,0-.046.1,1.635,1.635,0,0,1-.569-1.279c0-.161,0-.294.008-.411a1.143,1.143,0,0,0,.284-.213c.05-.129.138-.329.259-.584a3.64,3.64,0,0,1,.288-.3c.13-.128.192-.236.177-.328h.039c.092.011.15-.073.177-.246.455-.34.74-.548.836-.621a1.929,1.929,0,0,1,.914-.395.515.515,0,0,1,.269.086.627.627,0,0,0,.14.09l.067-.029a.387.387,0,0,1,.029.062.178.178,0,0,1,.021.071c0,.138-.054.209-.159.209a.054.054,0,0,1-.05-.025c0-.013-.021-.013-.04-.008a1.427,1.427,0,0,1-.461.753c-.288.3-.421.484-.413.557H362.7a.268.268,0,0,0-.208.119c-.058.079-.112.156-.165.229-.081.044-.194.107-.34.2a1.635,1.635,0,0,1-.206.213c-.177.1-.361.211-.54.319a.654.654,0,0,0-.254.542.9.9,0,0,0,.121.43.369.369,0,0,0,.313.217,2.007,2.007,0,0,0,.909-.242c.324-.161.488-.242.492-.242.025,0,.031,0,.031.013s.01.021.04.021c.062,0,.09-.06.09-.175l.112.071a2.026,2.026,0,0,1,.769-.643c.313-.167.622-.329.922-.5,0-.038-.016-.059-.069-.059a.87.87,0,0,0,.336-.187.713.713,0,0,1,.434-.182c.027,0,.048.015.071.054s.05.077.075.112m-2.97-1.1a3.171,3.171,0,0,0-1.172,1l.088.052c.2-.161.479-.415.846-.763.055-.039.109-.081.163-.119a.183.183,0,0,0,.075-.167" transform="translate(-268.082 -245.875)"></path><path class="c" d="M383.529,323a.058.058,0,0,1-.017.01c-.029.01-.1.044-.225.081a3.82,3.82,0,0,1-.734.184q-.187,0-.676.012H381.2a.371.371,0,0,1-.225.09.6.6,0,0,1-.2-.052.623.623,0,0,0-.2-.05c-.079,0-.229.208-.463.625-.265.48-.415.736-.446.778a1.05,1.05,0,0,1-.288.678c-.036.258-.1.64-.209,1.145-.079.073-.187.177-.321.3-.012,0-.018-.01-.018-.036a.271.271,0,0,1,.027-.112.079.079,0,0,0-.046-.008.405.405,0,0,0-.119.021.438.438,0,0,1-.117.025.206.206,0,0,1-.152-.075.232.232,0,0,1-.073-.159,1.843,1.843,0,0,1,.3-.692,1.847,1.847,0,0,0,.309-.68.2.2,0,0,0-.021-.092h.108a.264.264,0,0,0,.031-.185c.032-.01.082-.025.148-.04.031-.15.159-.58.375-1.281-.138.042-.271.083-.4.129a.545.545,0,0,0-.3.4.273.273,0,0,0,.021.173c-.036.069-.056.115-.073.121a.674.674,0,0,1-.15.006c-.05,0-.15-.073-.3-.229s-.229-.271-.229-.333c0-.246.2-.476.584-.672a2.144,2.144,0,0,1,.939-.244.47.47,0,0,1,.079.011.219.219,0,0,0,.083.013.394.394,0,0,0,.334-.25,2.066,2.066,0,0,1,.227-.367.336.336,0,0,0,.156-.254.707.707,0,0,0,0-.088v-.088a.622.622,0,0,1,.187-.35,2,2,0,0,0,.259-.369,2.515,2.515,0,0,1,.417-.857c.058-.125.134-.309.225-.555a2.737,2.737,0,0,1,.063-.338c.033-.083.158-.125.386-.125.031,0,.094.046.188.135s.14.152.14.186c0-.01-.054.18-.158.559a1.906,1.906,0,0,0-.555.73c-.142.279-.278.556-.43.838a2.972,2.972,0,0,0-.3.409,1.741,1.741,0,0,0-.006.227.586.586,0,0,0-.189.2c-.069.127-.113.207-.132.232,0,.033.029.067.091.121a1.352,1.352,0,0,1,.357-.071c.065,0,.165.017.3.029a2.048,2.048,0,0,0,.277.027,1.165,1.165,0,0,0,.221-.027c.1-.013.171-.029.22-.029.025,0,.039.008.039.025l-.008.008c0,.029.01.037.038.037a.613.613,0,0,0,.167-.029.527.527,0,0,1,.163-.042.574.574,0,0,1,.162.042.586.586,0,0,0,.165.029,1.787,1.787,0,0,0,.253-.054,1.546,1.546,0,0,1,.413-.044Zm-2.373-1.447-.039-.037-.119.138.029.035Z" transform="translate(-281.325 -237.467)"></path><path class="c" d="M395.844,331.087l.338-.959a.84.84,0,0,1,.753-.544.955.955,0,0,1,.227.109c.125.069.2.121.2.146.037.163.055.238.055.225,0,.05-.044.117-.13.213s-.15.138-.188.138a.125.125,0,0,1-.1-.031,6.849,6.849,0,0,1-.338.6,1.31,1.31,0,0,0-.221.644.859.859,0,0,0,.071.378l2.486-.58v.238c-.021,0-.211.1-.567.3a3.507,3.507,0,0,1-.509.246.586.586,0,0,1-.286-.063c-.023,0-.029.036-.023.1a.368.368,0,0,0-.146-.025,2.042,2.042,0,0,0-.6.262c-.027.009-.135.025-.338.05a1.446,1.446,0,0,0-.109.5,4.516,4.516,0,0,1-.062.563.24.24,0,0,1-.107-.073.061.061,0,0,0-.01.044.273.273,0,0,0,.01.075.372.372,0,0,1,.008.088c-.034.015-.084.034-.163.069,0,.031.042.044.1.044v.154a6.563,6.563,0,0,1-.755.674,2.244,2.244,0,0,0-.3.037,1.675,1.675,0,0,1-.3.036,1.088,1.088,0,0,1-.263-.142,2.828,2.828,0,0,0-.309-.188.481.481,0,0,0-.15-.225.4.4,0,0,1-.069-.277.887.887,0,0,1,.219-.623c.146-.161.294-.323.449-.49l-.011.031c0,.025.021.037.068.037q.169,0,.119-.275c.09-.019.184-.038.28-.063a.448.448,0,0,0,.24-.131c.031-.006.114-.011.265-.021a1.009,1.009,0,0,0,.221-.532.193.193,0,0,0-.08-.123c-.106.117-.2.175-.267.175a.1.1,0,0,1-.083-.04.116.116,0,0,0-.05-.033c0-.038-.006.029-.029.2a.47.47,0,0,1-.138.042.06.06,0,0,1-.038-.017.042.042,0,0,0-.042-.025.394.394,0,0,0-.052.011.158.158,0,0,1-.039.014c-.073,0-.117-.058-.132-.165a1.889,1.889,0,0,0,.469-.352,4.176,4.176,0,0,1,.446-.4Zm.059,1.792c0,.029-.017-.008-.042-.1a1.351,1.351,0,0,0-.187.052,4.63,4.63,0,0,0-.742.54c-.008.05-.04.159-.092.325a1.43,1.43,0,0,0-.083.313.269.269,0,0,0,.023.1.8.8,0,0,1,.019.084h.141a.857.857,0,0,0,.676-.475,1.588,1.588,0,0,0,.288-.834" transform="translate(-293.13 -245.172)"></path><path class="d" d="M160.155,185.456l2.07.645a8.9,8.9,0,0,1-2.409,4.776,6,6,0,0,1-4.186,1.568,6.317,6.317,0,0,1-3.7-1.053,7.44,7.44,0,0,1-2.518-3.4,14.07,14.07,0,0,1-.979-5.506,12.878,12.878,0,0,1,.979-5.322,7.444,7.444,0,0,1,2.658-3.277,6.619,6.619,0,0,1,3.733-1.111,5.775,5.775,0,0,1,3.878,1.4,7.6,7.6,0,0,1,2.276,4.131l-2.022.576c-.685-2.641-2.083-3.956-4.165-3.956a4.662,4.662,0,0,0-2.707.8,5.446,5.446,0,0,0-1.833,2.486,11.7,11.7,0,0,0-.67,4.271c0,2.6.45,4.551,1.37,5.852a4.258,4.258,0,0,0,3.658,1.954,4.013,4.013,0,0,0,2.916-1.2,6.481,6.481,0,0,0,1.65-3.639" transform="translate(-110.418 -128.527)"></path><path d="M228.344,200.506a8.4,8.4,0,0,0-1.468-5.32,4.508,4.508,0,0,0-3.667-1.837,4.659,4.659,0,0,0-3.8,1.873,8.525,8.525,0,0,0-1.5,5.443,8.091,8.091,0,0,0,1.49,5.26,4.763,4.763,0,0,0,3.884,1.823,4.681,4.681,0,0,0,3.2-1.118,5.936,5.936,0,0,0,1.788-3.32l-1.963-.3q-.852,2.828-3.014,2.828a2.928,2.928,0,0,1-2.339-1.189,5.954,5.954,0,0,1-1.08-3.516h8.453Zm-8.351-1.285a4.709,4.709,0,0,1,1-2.891,2.8,2.8,0,0,1,2.2-1.072,2.745,2.745,0,0,1,2.338,1.289,5.191,5.191,0,0,1,.781,2.674Z" transform="translate(-162.099 -143.829)"></path><path class="d" d="M277.165,207.434v-13.79h1.725v1.971a4.281,4.281,0,0,1,1.518-1.7,3.738,3.738,0,0,1,2.065-.569,3.95,3.95,0,0,1,1.677.35,3.479,3.479,0,0,1,1.243.938,3.853,3.853,0,0,1,.709,1.493,12.755,12.755,0,0,1,.227,2.828v8.476h-1.913v-8.39a7.021,7.021,0,0,0-.258-2.213,2.23,2.23,0,0,0-.809-1.082,2.188,2.188,0,0,0-1.279-.39,2.63,2.63,0,0,0-2.18,1.03,5.794,5.794,0,0,0-.813,3.525v7.521Z" transform="translate(-206.179 -143.829)"></path><path class="d" d="M335.191,192.175l.269,2.077a5.463,5.463,0,0,1-1.439.213,2.933,2.933,0,0,1-1.61-.394,1.985,1.985,0,0,1-.843-1.086,10.515,10.515,0,0,1-.229-2.745v-7.948h-1.414v-1.8h1.414v-3.41l1.914-1.413V180.5h1.938v1.8h-1.938v8.086a3.948,3.948,0,0,0,.165,1.441.955.955,0,0,0,.918.469,3.89,3.89,0,0,0,.855-.113" transform="translate(-245.427 -130.681)"></path><path class="d" d="M366.748,207.434v-13.79h1.729v2.1a5.983,5.983,0,0,1,1.214-1.925,1.855,1.855,0,0,1,1.241-.475,3.244,3.244,0,0,1,1.956.745l-.636,2.171a2.4,2.4,0,0,0-1.385-.5,1.705,1.705,0,0,0-1.12.425,2.367,2.367,0,0,0-.721,1.191,11.411,11.411,0,0,0-.357,2.843v7.212Z" transform="translate(-272.819 -143.829)"></path><path d="M412.178,200.506a8.364,8.364,0,0,0-1.471-5.32,4.494,4.494,0,0,0-3.662-1.837,4.674,4.674,0,0,0-3.806,1.873,8.6,8.6,0,0,0-1.5,5.443,8.116,8.116,0,0,0,1.491,5.26,4.771,4.771,0,0,0,3.892,1.823,4.685,4.685,0,0,0,3.2-1.118,6.027,6.027,0,0,0,1.788-3.32l-1.969-.3c-.563,1.885-1.566,2.828-3,2.828a2.912,2.912,0,0,1-2.349-1.189,5.882,5.882,0,0,1-1.089-3.516h8.453Zm-8.351-1.285a4.7,4.7,0,0,1,1-2.891,2.79,2.79,0,0,1,4.55.217,5.218,5.218,0,0,1,.765,2.674Z" transform="translate(-298.849 -143.829)"></path><path class="d" d="M150.494,110.042V91.016h2.072v16.8h7.686v2.225Z" transform="translate(-111.951 -67.706)"></path><path d="M212.769,112.114a4.844,4.844,0,0,0-7.555,0,8.348,8.348,0,0,0-1.5,5.4,8.287,8.287,0,0,0,1.506,5.38,4.859,4.859,0,0,0,7.582,0q1.48-1.808,1.485-5.524a8.029,8.029,0,0,0-1.518-5.254m-1.408,9.366a2.815,2.815,0,0,1-2.312,1.32,2.9,2.9,0,0,1-2.4-1.313,8.628,8.628,0,0,1-.008-7.957,2.8,2.8,0,0,1,2.305-1.314,2.908,2.908,0,0,1,2.41,1.314,6.665,6.665,0,0,1,.967,3.971,6.812,6.812,0,0,1-.959,3.978" transform="translate(-151.54 -82.053)"></path><path class="d" d="M263.167,125.247,258.9,111.456h1.988l2.421,8.254c.275.928.522,1.856.732,2.778.161-.734.4-1.606.7-2.623l2.536-8.409h1.99l-4.3,13.791Z" transform="translate(-192.592 -82.911)"></path><path d="M322.8,117.473a8.426,8.426,0,0,0-1.458-5.328,4.524,4.524,0,0,0-3.669-1.843,4.659,4.659,0,0,0-3.8,1.877,8.539,8.539,0,0,0-1.493,5.44,8.134,8.134,0,0,0,1.485,5.271,5.1,5.1,0,0,0,7.089.7,5.92,5.92,0,0,0,1.783-3.323l-1.963-.288c-.565,1.874-1.57,2.82-3.007,2.82a2.93,2.93,0,0,1-2.351-1.192,5.98,5.98,0,0,1-1.074-3.514H322.8Zm-8.338-1.293a4.679,4.679,0,0,1,1-2.892,2.785,2.785,0,0,1,4.546.222,5.27,5.27,0,0,1,.769,2.669Z" transform="translate(-232.379 -82.053)"></path><path class="d" d="M371.611,124.389V110.6h1.72v2.109a5.96,5.96,0,0,1,1.214-1.928,1.822,1.822,0,0,1,1.243-.476,3.241,3.241,0,0,1,1.952.746l-.634,2.178a2.444,2.444,0,0,0-1.4-.5,1.754,1.754,0,0,0-1.115.426,2.374,2.374,0,0,0-.716,1.2,10.78,10.78,0,0,0-.354,2.833v7.209Z" transform="translate(-276.436 -82.053)"></path><path class="d" d="M406.243,120.269l1.919-.342a3.386,3.386,0,0,0,.914,2.16,2.767,2.767,0,0,0,2,.714,2.733,2.733,0,0,0,1.916-.622,2.017,2.017,0,0,0,.676-1.565,1.538,1.538,0,0,0-.573-1.28,7.313,7.313,0,0,0-1.935-.786,13.542,13.542,0,0,1-2.993-1.161,3.39,3.39,0,0,1-1.185-1.282,4.032,4.032,0,0,1-.411-1.829,3.832,3.832,0,0,1,1.133-2.865,4.267,4.267,0,0,1,3.128-1.109,5.051,5.051,0,0,1,2.217.458,3.482,3.482,0,0,1,1.458,1.223,5.367,5.367,0,0,1,.7,2.2l-1.856.343a2.274,2.274,0,0,0-2.473-2.312,2.865,2.865,0,0,0-1.852.5,1.534,1.534,0,0,0-.607,1.279,1.436,1.436,0,0,0,.576,1.208,11.219,11.219,0,0,0,2.1.827,14.741,14.741,0,0,1,3.08,1.178,3.04,3.04,0,0,1,1.078,1.223,4.213,4.213,0,0,1,.383,1.839,4.358,4.358,0,0,1-1.242,3.213,4.737,4.737,0,0,1-3.437,1.225q-4.048,0-4.709-4.442" transform="translate(-302.199 -82.053)"></path><path d="M162.008,10.2a4.1,4.1,0,0,0-2.155-1.833,9.628,9.628,0,0,0-3.067-.353h-5.873V27.041h2.066V19.274h4c2.145,0,3.655-.543,4.529-1.615a6.458,6.458,0,0,0,1.308-4.184,6.19,6.19,0,0,0-.808-3.275m-2.2,5.986a3.886,3.886,0,0,1-2.788.856h-4.04v-6.8h4a6.058,6.058,0,0,1,2.234.293,2.593,2.593,0,0,1,1.048,1.106,4.069,4.069,0,0,1,.433,1.937,3.51,3.51,0,0,1-.886,2.608" transform="translate(-112.262 -5.961)"></path><path d="M223.751,34.466a8.342,8.342,0,0,0-1.469-5.325,4.5,4.5,0,0,0-3.666-1.841,4.673,4.673,0,0,0-3.8,1.874,8.562,8.562,0,0,0-1.5,5.438,8.108,8.108,0,0,0,1.486,5.269A4.774,4.774,0,0,0,218.7,41.7a4.72,4.72,0,0,0,3.2-1.122,5.949,5.949,0,0,0,1.778-3.32l-1.961-.285c-.563,1.877-1.569,2.814-3,2.814a2.925,2.925,0,0,1-2.351-1.188,6.01,6.01,0,0,1-1.081-3.518h8.453Zm-8.343-1.289a4.615,4.615,0,0,1,1-2.893,2.777,2.777,0,0,1,2.2-1.078,2.809,2.809,0,0,1,2.349,1.288,5.263,5.263,0,0,1,.766,2.683Z" transform="translate(-158.685 -20.308)"></path><path class="d" d="M273.984,26.161l.259,2.07a5.727,5.727,0,0,1-1.423.221,2.964,2.964,0,0,1-1.627-.4,1.933,1.933,0,0,1-.838-1.086,10.576,10.576,0,0,1-.233-2.753V16.273h-1.4V14.462h1.4v-3.4l1.915-1.408v4.8h1.947v1.811h-1.947v8.081a3.675,3.675,0,0,0,.175,1.449.946.946,0,0,0,.922.468,4.865,4.865,0,0,0,.851-.11" transform="translate(-199.897 -7.184)"></path><rect width="90.353" height="8.284" transform="translate(31.723 66.02)"></rect><path class="e" d="M144.824,270H143.7l1.146-4.171h2.241a3.315,3.315,0,0,1,.942.106,1.076,1.076,0,0,1,.552.357.869.869,0,0,1,.2.582,1.329,1.329,0,0,1-.161.622,1.532,1.532,0,0,1-.4.473,1.794,1.794,0,0,1-.5.273,3.518,3.518,0,0,1-.727.138c-.18.019-.51.029-1,.029h-.724Zm.629-2.284h.349a5.439,5.439,0,0,0,1.2-.083,1.021,1.021,0,0,0,.473-.273.583.583,0,0,0,.171-.411.351.351,0,0,0-.09-.248.489.489,0,0,0-.248-.144,3.779,3.779,0,0,0-.707-.042h-.811Z" transform="translate(-106.893 -197.747)"></path><path class="e" d="M167.984,271.865h-2.706a.59.59,0,0,0,0,.077.6.6,0,0,0,.232.49.839.839,0,0,0,.549.175.967.967,0,0,0,.84-.417l.963.123a1.779,1.779,0,0,1-.752.665,2.53,2.53,0,0,1-1.055.213,2.1,2.1,0,0,1-1.307-.38,1.222,1.222,0,0,1-.5-1.022,1.578,1.578,0,0,1,.453-1.1,2.328,2.328,0,0,1,1.768-.657,1.8,1.8,0,0,1,1.166.348,1.14,1.14,0,0,1,.426.955,1.821,1.821,0,0,1-.07.53m-.909-.5c0-.034,0-.062,0-.083a.623.623,0,0,0-.2-.5.791.791,0,0,0-.534-.163.986.986,0,0,0-.6.183.957.957,0,0,0-.361.563Z" transform="translate(-122.176 -200.873)"></path><path class="e" d="M181.446,267.88l.169-.6h.52l.132-.484,1.236-.563-.292,1.047h.657l-.164.6h-.662l-.347,1.266a3.191,3.191,0,0,0-.091.394.15.15,0,0,0,.077.144.513.513,0,0,0,.284.054c.048,0,.169,0,.355-.017l-.167.6a3.686,3.686,0,0,1-.571.037,1.574,1.574,0,0,1-.829-.163.519.519,0,0,1-.259-.463,3.114,3.114,0,0,1,.14-.642l.337-1.216Z" transform="translate(-134.975 -198.045)"></path><path class="e" d="M212.275,268.3l1.14.123a2.319,2.319,0,0,1-1,1.074,3.136,3.136,0,0,1-1.567.371,2.438,2.438,0,0,1-1.58-.461,1.6,1.6,0,0,1-.566-1.333,2.318,2.318,0,0,1,.381-1.3,2.507,2.507,0,0,1,1.056-.905,3.515,3.515,0,0,1,1.468-.309,2.559,2.559,0,0,1,1.449.363,1.372,1.372,0,0,1,.645.982l-1.08.081a.834.834,0,0,0-.349-.521,1.234,1.234,0,0,0-.687-.167,1.843,1.843,0,0,0-.874.215,1.555,1.555,0,0,0-.649.678,1.9,1.9,0,0,0-.245.909.986.986,0,0,0,.315.78,1.18,1.18,0,0,0,.789.271,1.55,1.55,0,0,0,.81-.217,1.319,1.319,0,0,0,.545-.634" transform="translate(-155.251 -197.548)"></path><path class="e" d="M230.368,270.963l-1.049-.069a1.277,1.277,0,0,1,.63-.63,2.646,2.646,0,0,1,1.185-.231,2.184,2.184,0,0,1,1.14.236.682.682,0,0,1,.368.576,1.369,1.369,0,0,1-.033.286c-.021.1-.1.373-.222.809a3.145,3.145,0,0,0-.159.757,1.3,1.3,0,0,0,.09.432h-1.049a1.348,1.348,0,0,1-.079-.346,1.576,1.576,0,0,1-.543.307,1.871,1.871,0,0,1-.616.1,1.318,1.318,0,0,1-.821-.242.757.757,0,0,1-.32-.636.807.807,0,0,1,.352-.686,2.537,2.537,0,0,1,1.27-.313,7.01,7.01,0,0,0,1.027-.117.766.766,0,0,0,.065-.273.253.253,0,0,0-.137-.221.794.794,0,0,0-.415-.081.918.918,0,0,0-.453.086.454.454,0,0,0-.232.254m1.029.755a2.48,2.48,0,0,1-.264.034,3.1,3.1,0,0,0-1.057.219.315.315,0,0,0-.175.271.286.286,0,0,0,.137.246.566.566,0,0,0,.354.1,1.2,1.2,0,0,0,.459-.088.746.746,0,0,0,.324-.229,1.3,1.3,0,0,0,.188-.44Z" transform="translate(-170.267 -200.874)"></path><path class="e" d="M246.027,270.106h1.009l-.164.588a1.611,1.611,0,0,1,1.221-.661,1.524,1.524,0,0,1,.5.094l-.415.665a1.14,1.14,0,0,0-.875.117,1.18,1.18,0,0,0-.447.427,3.381,3.381,0,0,0-.322.843l-.263.949h-1.075Z" transform="translate(-182.397 -200.874)"></path><path class="e" d="M261.388,271.865h-2.7c0,.034-.008.059-.008.077a.613.613,0,0,0,.229.49.865.865,0,0,0,.555.175.96.96,0,0,0,.836-.417l.961.123a1.76,1.76,0,0,1-.749.665,2.55,2.55,0,0,1-1.055.213,2.111,2.111,0,0,1-1.308-.38,1.231,1.231,0,0,1-.5-1.022,1.579,1.579,0,0,1,.455-1.1,2.333,2.333,0,0,1,1.769-.657,1.792,1.792,0,0,1,1.164.348,1.144,1.144,0,0,1,.432.955,1.627,1.627,0,0,1-.077.53m-.905-.5v-.083a.622.622,0,0,0-.194-.5.8.8,0,0,0-.534-.163.936.936,0,0,0-.961.747Z" transform="translate(-191.659 -200.873)"></path><path class="e" d="M291.186,268.45l1.074-.044a.733.733,0,0,0,.18.523,1.406,1.406,0,0,0,.918.223,1.515,1.515,0,0,0,.8-.154.423.423,0,0,0,.25-.359.39.39,0,0,0-.2-.317,5.706,5.706,0,0,0-.788-.3,8.717,8.717,0,0,1-.935-.35,1.259,1.259,0,0,1-.465-.367.848.848,0,0,1-.169-.525,1.044,1.044,0,0,1,.5-.876,2.645,2.645,0,0,1,1.462-.342,2.742,2.742,0,0,1,1.5.342,1.174,1.174,0,0,1,.584.916l-1.083.034a.663.663,0,0,0-.284-.455,1.318,1.318,0,0,0-.723-.161,1.341,1.341,0,0,0-.674.129.367.367,0,0,0-.2.313.339.339,0,0,0,.184.3,4.507,4.507,0,0,0,.816.329,4.851,4.851,0,0,1,1.205.5.877.877,0,0,1,.39.732,1.118,1.118,0,0,1-.573.943,2.833,2.833,0,0,1-1.606.388,3.688,3.688,0,0,1-1.23-.177,1.4,1.4,0,0,1-.738-.5,1.226,1.226,0,0,1-.194-.736" transform="translate(-216.609 -197.548)"></path><path class="e" d="M311.33,266.979H312.4l-.83,3.022h-1.081Zm.315-1.149h1.076l-.2.74h-1.078Z" transform="translate(-230.972 -197.747)"></path><path class="e" d="M319.735,270.106h1.022l-.1.392a3.439,3.439,0,0,1,.717-.359,2.285,2.285,0,0,1,.7-.106,1.267,1.267,0,0,1,.778.217.668.668,0,0,1,.279.561,2.9,2.9,0,0,1-.12.6l-.467,1.712h-1.081l.474-1.716a3.09,3.09,0,0,0,.1-.457.267.267,0,0,0-.123-.246.53.53,0,0,0-.336-.086,1.106,1.106,0,0,0-.526.144,1.166,1.166,0,0,0-.455.4,2.8,2.8,0,0,0-.271.724l-.342,1.239h-1.074Z" transform="translate(-237.231 -200.874)"></path><path class="e" d="M340.327,271.986l1.041.127a1.8,1.8,0,0,1-.763.807,2.454,2.454,0,0,1-1.179.271,1.987,1.987,0,0,1-1.209-.338,1.145,1.145,0,0,1-.442-.951,1.715,1.715,0,0,1,.273-.926,1.774,1.774,0,0,1,.812-.693,2.829,2.829,0,0,1,1.2-.252,2.01,2.01,0,0,1,1.127.282,1,1,0,0,1,.469.732l-1.024.079a.544.544,0,0,0-.2-.369.733.733,0,0,0-.438-.117,1.034,1.034,0,0,0-.58.171,1.065,1.065,0,0,0-.413.534,1.613,1.613,0,0,0-.148.655.522.522,0,0,0,.169.413.693.693,0,0,0,.436.144.962.962,0,0,0,.878-.57" transform="translate(-251.266 -200.873)"></path><path class="e" d="M358.157,271.865h-2.7c0,.034,0,.059,0,.077a.612.612,0,0,0,.229.49.851.851,0,0,0,.552.175.956.956,0,0,0,.838-.417l.964.123a1.764,1.764,0,0,1-.753.665,2.522,2.522,0,0,1-1.053.213,2.105,2.105,0,0,1-1.308-.38,1.233,1.233,0,0,1-.5-1.022,1.575,1.575,0,0,1,.45-1.1,2.32,2.32,0,0,1,1.769-.657,1.784,1.784,0,0,1,1.164.348,1.139,1.139,0,0,1,.434.955,1.752,1.752,0,0,1-.079.53m-.905-.5c0-.034,0-.062,0-.083a.614.614,0,0,0-.2-.5.779.779,0,0,0-.526-.163.982.982,0,0,0-.6.183.919.919,0,0,0-.361.563Z" transform="translate(-263.648 -200.873)"></path><path class="e" d="M389.615,267.535l.2-.732a6.905,6.905,0,0,0,2.157-1.07h.659l-1.157,4.2h-1.087l.8-2.895a4.912,4.912,0,0,1-.776.306,6.225,6.225,0,0,1-.788.194" transform="translate(-289.829 -197.675)"></path><path class="e" d="M404.63,268.983l1.01-.065a.517.517,0,0,0,.154.347.57.57,0,0,0,.346.1.761.761,0,0,0,.475-.163,1.492,1.492,0,0,0,.488-.763,1.77,1.77,0,0,1-1.785-.156,1.1,1.1,0,0,1-.409-.9,1.494,1.494,0,0,1,.53-1.128,1.962,1.962,0,0,1,1.4-.5,1.561,1.561,0,0,1,1.184.43,1.6,1.6,0,0,1,.409,1.155,2.87,2.87,0,0,1-.653,1.9,2.15,2.15,0,0,1-1.729.772,1.7,1.7,0,0,1-1-.267,1.03,1.03,0,0,1-.421-.761m2.766-1.931a.632.632,0,0,0-.167-.482.65.65,0,0,0-.43-.154.758.758,0,0,0-.54.221,1.063,1.063,0,0,0-.3.8.611.611,0,0,0,.166.478.584.584,0,0,0,.411.156.766.766,0,0,0,.415-.127.776.776,0,0,0,.329-.369,1.214,1.214,0,0,0,.117-.528" transform="translate(-300.999 -197.693)"></path><path class="e" d="M422.513,266.812l.208-.753h3.635l-.165.582a3.928,3.928,0,0,0-.761.634,6.53,6.53,0,0,0-.772.938,7.4,7.4,0,0,0-.582.989,5.115,5.115,0,0,0-.382.97h-1.028a4.288,4.288,0,0,1,.321-.857,7.209,7.209,0,0,1,.768-1.3,7.482,7.482,0,0,1,1.118-1.2Z" transform="translate(-314.302 -197.918)"></path><path class="e" d="M437.635,268.856l1.032-.094a.717.717,0,0,0,.234.457.7.7,0,0,0,.442.133.972.972,0,0,0,.613-.192.579.579,0,0,0,.238-.48.473.473,0,0,0-.194-.4.849.849,0,0,0-.523-.15c-.054,0-.117.008-.171.013l.186-.68a.954.954,0,0,0,.111,0,1.127,1.127,0,0,0,.659-.163.548.548,0,0,0,.225-.45.392.392,0,0,0-.155-.321.653.653,0,0,0-.4-.112.7.7,0,0,0-.417.127.878.878,0,0,0-.292.44l-.984-.146a1.637,1.637,0,0,1,.517-.709,2.08,2.08,0,0,1,1.252-.371,1.831,1.831,0,0,1,1.151.317.978.978,0,0,1,.4.773.839.839,0,0,1-.254.582,1.466,1.466,0,0,1-.691.384,1.149,1.149,0,0,1,.513.365.749.749,0,0,1,.168.461,1.144,1.144,0,0,1-.434.849,2.187,2.187,0,0,1-1.518.523,2.025,2.025,0,0,1-1.152-.3,1.273,1.273,0,0,1-.552-.857" transform="translate(-325.551 -197.693)"></path><rect class="c" width="32.141" height="23.8" transform="translate(0 25.369)"></rect><path class="f" d="M47.3,106.569c-.6.365-.243.786-.174,1.083a5.679,5.679,0,0,1,.475,2.422,4.89,4.89,0,0,1-.786,2.357c-.362.6-.362.423-.362,1.144s0,3.63.362,4.236.906.237,1.2.472a.689.689,0,0,1-.058,1.1,2.438,2.438,0,0,1-1.444.182c-.428-.065-.787-.367-.915-1.153s-.357-2.287-.783-2.351-.242.3-.242.662.3.728-.062,1.206-.3.788,0,.788.544-.241.851.065.549.559.236.72a10.5,10.5,0,0,1-3.1.3,27,27,0,0,1-2.94-.172c-.964-.058-.779-.123-.779-.123a2.5,2.5,0,0,0-.418.9c-.067.425.089,1.811,2.347,2.06a8.553,8.553,0,0,0,4.108-.3c1.515-.485,1.18.113,1.18.113a2.625,2.625,0,0,1-.872.552,17.069,17.069,0,0,1-4.351.786,4.016,4.016,0,0,1-3.087-1.268,2.782,2.782,0,0,1-.719-2.419c.121-.848.909-1.262,1.086-1.636s-.3-1.45-.6-2.227a5.978,5.978,0,0,1,.49-4.959c1.2-1.8,2.955-1.994,3.735-2.656a7.094,7.094,0,0,0,1.518-2.415c.117-.3.4-2.428,1.32-2.843.8-.344.7-1.158,1.065-.995.209.088.242.966.242.966s.074-.59.357-.79.394-.061.394-.061.056.946.079,1.2.178,0,.521.187c.456.248.365.5.625.681s.477.07.754.6.256,1.1-.06,1.266a6.428,6.428,0,0,1-1.194.334" transform="translate(-27.474 -76.001)"></path><rect class="c" width="32.141" height="23.792"></rect><path class="f" d="M39.241,20.116l.569-.369c2.095-1.356,2.02-5.221,1.919-6.2a6.96,6.96,0,0,0-1.721-3.239c-.652-.593-.458-.751.054-.994a2.217,2.217,0,0,0,.909-2c-.182-.592-.606-.45-1-.284a1.884,1.884,0,0,1-1.087.088c-.176-.056-.078-.48-.273-.769a2.948,2.948,0,0,0-.88-.707c-.4-.286.175-1.3-.828-1.12a6.73,6.73,0,0,0-3.41,1.72A4.638,4.638,0,0,0,32.469,9.29s.058.277-.186.277A8.446,8.446,0,0,0,30.2,10.93a4.035,4.035,0,0,0-1.209,2.115,8.013,8.013,0,0,0-1.615.329,4.965,4.965,0,0,1-1.317.365c-.324.031-.579.072-.6-.667s-.16-1.845-.781-1.827-.909.012-1.275.5A1.773,1.773,0,0,0,23.164,13c0,.244.424.8.69.769a.936.936,0,0,1,.758.239.758.758,0,0,1,.144.79,3.584,3.584,0,0,0-.349,1.334c-.011.683.241,2.2.19,2.786s-.431.59-.633.953.03.437-.265.858-.99.955-1.17,1.429a1.641,1.641,0,0,0-.012,1.227c.138.354.451.259.634.6.164.327-.056.615.043.976.105.392.148.167.414.365a1.333,1.333,0,0,0,1.109.373c.741,0,.88-.4.88-.551,0-.175-.089-.309-.394-.358s-.226-.462-.3-.52-.183-.417.05-.431.231-.043.376-.223-.165-.227.081-.585c.218-.307.028-.582.511-.652.418-.063.358.545.358.887a2.52,2.52,0,0,0,.214,1.007,1.32,1.32,0,0,0,1.089.581c.467.048.617-.3.6-.62a.723.723,0,0,0-.531-.606c-.234-.09-.193-.2-.147-.39s.343-.36.4-.711-.633-1.3-.056-1.666c.26-.164.845-.612.907-.868s-.073-.483.227-.623a1.561,1.561,0,0,0,.751-.668c.259-.367.386-.367.456-.388s.226-.1.609.287a9.031,9.031,0,0,0,1.642,1.164,5.1,5.1,0,0,0,1.83.753,4.012,4.012,0,0,0,1.692.105c.391-.018.617.161.25.487a1.417,1.417,0,0,0-.552,1.282,1.265,1.265,0,0,0,.693,1.039c.189.093.266.016.573.5s.056.6.256.971a1.633,1.633,0,0,0,1.595.734c.976,0,1.369-.572,1.392-.874a.673.673,0,0,0-.486-.678.4.4,0,0,1-.253-.546c.061-.231.253-.237.513-.5a1.55,1.55,0,0,0,.144-1.421c-.171-.633-1-.757-1.107-1a.327.327,0,0,1,.043-.307,1.982,1.982,0,0,1,.219-.2" transform="translate(-16.667 -3.35)"></path><rect class="c" width="32.141" height="23.801" transform="translate(0 50.503)"></rect><path class="g" d="M99.082,239.189a.483.483,0,1,1,.48.482.48.48,0,0,1-.48-.482" transform="translate(-73.706 -177.569)"></path><path class="f" d="M35.678,219.964c-.36-.48-.963-2.592-3.259-3.143s-5.5-.367-6.164-.542-2.046-.972-6.4-.6c-4.338.367-3.138.367-3.138.367l-2.107.354-.126.425c1.383.244,1.984-.6,4.769,0s1.628,0,2.711.851a2.376,2.376,0,0,1,1.1,2.353.482.482,0,0,1-.61.184,15.342,15.342,0,0,0-2.718-1.817c-1.03-.419-1.451-.6-1.631,0a7.561,7.561,0,0,0-.118,1.871l-.306.367s-.424,1.328.239,2-.3,1.745.546,2.115,3.078-1.155,3.924-1.691.786-.188.786-.188.246,2.3-1.334,2.905a21.591,21.591,0,0,1-6.881,1.447c-2.177-.06.786.486.786.486s6.465,0,7.492-.611,2.655.065,4.954-.657c2.288-.738,2.587.058,2.587.058a12.659,12.659,0,0,1-1.445,1.933c-.543.478.966.238,1.628-.125s2-1.931,2.967-2.175a10.29,10.29,0,0,0,3.923-3.437c.486-1.032-1.812-2.24-2.174-2.724m-.969,4.061-.209.092a1.485,1.485,0,0,1-.254-1.105,3.463,3.463,0,0,1,.447-1.053l.2.148s-.247.509-.4.945a1.275,1.275,0,0,0,.218.974M36.39,222.5a.536.536,0,1,1,.534-.534.532.532,0,0,1-.534.534" transform="translate(-10.534 -160.365)"></path><path class="h" d="M452.325,237.762a1.39,1.39,0,0,1,.666.175,1.246,1.246,0,0,1,.506.5,1.361,1.361,0,0,1,0,1.352,1.26,1.26,0,0,1-.5.5,1.361,1.361,0,0,1-1.348,0,1.267,1.267,0,0,1-.5-.5,1.356,1.356,0,0,1,0-1.352,1.25,1.25,0,0,1,.507-.5,1.39,1.39,0,0,1,.666-.175m0,.224a1.153,1.153,0,0,0-.556.147,1.047,1.047,0,0,0-.423.418,1.126,1.126,0,0,0,0,1.127,1.064,1.064,0,0,0,.419.418,1.13,1.13,0,0,0,1.124,0,1.061,1.061,0,0,0,.418-.418,1.132,1.132,0,0,0,0-1.127,1.043,1.043,0,0,0-.423-.418,1.152,1.152,0,0,0-.554-.147m-.594,1.879v-1.458h.5a1.217,1.217,0,0,1,.372.04.359.359,0,0,1,.183.141.373.373,0,0,1,.068.214.388.388,0,0,1-.114.278.451.451,0,0,1-.3.133.4.4,0,0,1,.124.077,1.654,1.654,0,0,1,.216.289l.177.285h-.287l-.129-.23a1.183,1.183,0,0,0-.246-.339.3.3,0,0,0-.189-.05h-.138v.619Zm.235-.82h.286a.462.462,0,0,0,.279-.061.2.2,0,0,0,.074-.162.2.2,0,0,0-.036-.116.215.215,0,0,0-.1-.076.737.737,0,0,0-.236-.025h-.268Z" transform="translate(-335.471 -176.868)"></path><path class="c" d="M416.325,314.162a1.39,1.39,0,0,1,.666.175,1.245,1.245,0,0,1,.506.5,1.36,1.36,0,0,1,0,1.352,1.259,1.259,0,0,1-.5.5,1.362,1.362,0,0,1-1.348,0,1.267,1.267,0,0,1-.5-.5,1.355,1.355,0,0,1,0-1.352,1.249,1.249,0,0,1,.507-.5,1.39,1.39,0,0,1,.666-.175m0,.224a1.153,1.153,0,0,0-.556.147,1.046,1.046,0,0,0-.423.418,1.125,1.125,0,0,0,0,1.127,1.064,1.064,0,0,0,.419.418,1.13,1.13,0,0,0,1.124,0,1.061,1.061,0,0,0,.418-.418,1.132,1.132,0,0,0,0-1.127,1.043,1.043,0,0,0-.423-.418,1.152,1.152,0,0,0-.554-.147m-.594,1.879v-1.458h.5a1.216,1.216,0,0,1,.372.04.359.359,0,0,1,.183.141.373.373,0,0,1,.068.214.388.388,0,0,1-.114.278.45.45,0,0,1-.3.133.4.4,0,0,1,.123.077,1.649,1.649,0,0,1,.216.289l.178.285h-.287l-.129-.23a1.184,1.184,0,0,0-.246-.339.3.3,0,0,0-.188-.05h-.138v.619Zm.235-.82h.286a.462.462,0,0,0,.279-.061.2.2,0,0,0,.074-.162.2.2,0,0,0-.036-.116.214.214,0,0,0-.1-.076.737.737,0,0,0-.236-.025h-.268Z" transform="translate(-308.691 -233.701)"></path></g></svg>